<?xml version="1.0" encoding="utf-8"?>
<!-- Generator: Adobe Illustrator 28.0.0, SVG Export Plug-In . SVG Version: 6.00 Build 0)  -->
<svg version="1.0" id="Layer_1" xmlns="http://www.w3.org/2000/svg" xmlns:xlink="http://www.w3.org/1999/xlink" x="0px" y="0px"
	 viewBox="0 0 1920 692.66" style="enable-background:new 0 0 1920 692.66;" xml:space="preserve">
<style type="text/css">
	.st0{enable-background:new    ;}
</style>
<g>
	<g>
		<path d="M80.63,341.69c0,0-8.53,3.79,0.95-1.89s35.05-48.31,37.89-56.84s27.47-31.26,27.47-31.26
			c33.15-16.1,47.36-29.36,47.36-29.36s14.21-9.47,10.42-7.58c-3.79,1.89,34.1-9.47,34.1-9.47l6.63-1.89l8.53-1.89l12.31-1.89
			c0,0-9.42,0.95,9.97,0c19.39-0.95,38.34,4.74,38.34,4.74s3.79,0.95,7.58,3.79c3.79,2.84,0.95,0.95,11.37,7.58
			c10.42,6.63,13.26,8.53,13.26,8.53h4.74c5.68-3.79,14.49-20.11,26.66-24.74c12.18-4.63,30.17-8.42,30.17-8.42l21.79,1.89
			c0,0,28.55,24.34,34.1,25.58c0.38,0.08,0.8,0.16,1.25,0.23c9.67,1.42,34.75-1.17,34.75-1.17"/>
		<path d="M77.1,342.93c0,0-1.21,20.55-6.9,23.39c-5.68,2.84,0,15.24,0,15.24l-5.68,13.18c-12.31,11.37-1.89,16.1-12.31,11.37
			s-10.42,22.95-10.42,22.95s1.89,5.47,5.68,1.68s3.79,0,11.37-7.58s11.37-16.1,11.37-16.1s0,9.47,5.68,5.68s14.21-11.37,14.21-16.1
			c0-4.74,15.49-5.95,14.85-9.13s21.15-1.29,21.15-6.97s0,18.12,0,18.12s-16.1,3.67-19.89,9.35s-23.68,16.64-22.26,18.74
			s9.95,20.1,16.58,20.1s25.58-11.7,25.58-11.7s-0.95-4.4,16.1-1.56s18,7.58,18,7.58v17.44v17.96c0,0,1.89,3.44,1.89,4.39
			s17.05,6.63,19.89-2.84s14.21,0.95,14.21,0.95s5.68,1.89,7.58-2.84c1.89-4.74,10.42-7.58,12.31-5.68
			c1.89,1.89,3.79-5.68,3.79-5.68s-9.47-8.53-14.21-6.63c-4.74,1.89-16.1-14.21-16.1-14.21s24.63,0.95,25.58-1.89
			s35.05,4.74,35.05-5.68s28.42-2.84,24.63-18.95c-3.79-16.1,37.89-20.84,37.89-20.84s19.89-8.53,35.05-2.84s34.1,16.1,34.1,16.1
			s15.16,5.68,20.84,13.26s6.63,16.1,6.63,16.1s-1.89,2.84,1.89,3.79s8.53,4.74,9.47-0.95s10.42-5.68,10.42-5.68h20.84
			c0,0,0,1.89,2.84-0.95s6.63-6.63,6.63-6.63c0.95-2.84,4.74-12.31,16.1-14.21c11.37-1.89,10.42-10.42,10.42-10.42
			s-0.95-3.79-3.79-2.84s-9.47-1.89-15.16,1.89c-5.68,3.79-15.16,3.79-15.16,3.79s-11.61,4.5-18,1.89
			c-5.83-2.38-31.5-6.15-38.84-5.68c-3.41,0.21,24.75,9.94,14.21,2.84c-103.56-69.68-10.04,5.57-2.84,0.95
			c8.01-5.14-41.68-30.31-47.36-39.78s-0.95-43.57-0.95-43.57s16.1,0,19.89-4.74s18-10.42,18.95-17.05
			c0.95-6.63,9.47-18.95,9.47-18.95s4.27-13.92,3.55-15.96c-0.71-2.04,2.13-21.93,0.24-23.83"/>
		<path d="M427.32,239.39c0,0,16.1,12.31,20.84,12.31s17.05,9.47,17.05,9.47s16.82,5.97,18.83,5.83c2.01-0.14,7.73,4.52,3.92,2.19
			s3.55,2.7,6.5,0.65c2.95-2.04,1.79-4.75,0-5.29c-1.79-0.54-5.57-7.17-1.79-8.12c3.79-0.95-0.4-2.51,3.59-6.94s0-10.11,0-10.11
			s-9.27-6.63-7.38-8.53c1.89-1.89,4.74-8.53,7.58-5.68c2.84,2.84,11.37,5.68,11.37,13.26c0,7.58,12.31,10.42,17.05,18
			s6.63,8.53,6.63,16.1c0,7.58,17.05-6.63,20.84-3.79s9.47-2.84,16.1,0s6.63,2.84,6.63,2.84s5.68,0.95,7.58,0
			c1.89-0.95,6.63-4.74,5.68-6.63c0,0,2.14,0.71,0.12-5.33c-2.02-6.04-9.6-1.3-10.54-2.25c-0.95-0.95-12.31,0-13.26-2.84
			s-13.26-12.31-12.31-16.1s-10.42-17.05-12.31-18s-6.63-8.53-18.95-8.53s-14.32-1.89-28.95,0s-27.89,6.63-27.89,6.63"/>
	</g>
	<g>
		<g class="st0">
			<path d="M662.85,250.9l1.08,31.36l-12.26-19.86h-7.48v38.2l11.74,15.16h-40.01l11.74-15.16v-38.2h-7.48l-12.26,19.86L609,250.9
				L662.85,250.9L662.85,250.9z"/>
			<path d="M685.96,247.63v31.88c3.22-7.54,7.27-11.31,12.14-11.31c4.06,0,7.3,1.54,9.7,4.63c2.41,3.09,3.61,7.26,3.61,12.52v18.53
				l9.07,11.88h-28.1l5.7-10.83v-14.44c0-6.84-1.63-10.26-4.9-10.26c-4.81,0-7.22,4.86-7.22,14.59v10.12l5.69,10.83h-29.69
				l10.66-11.88v-43.28l-9.07-11.88L685.96,247.63z"/>
			<path d="M759.76,295.52h-25.43c0,8.36,3.74,12.54,11.23,12.54c7.09,0,11.76-2.72,13.99-8.17c0.28,1.3,0.42,2.36,0.42,3.18
				c0,4.59-1.61,8.27-4.84,11.05c-3.23,2.77-7.5,4.16-12.83,4.16c-6.66,0-12.03-2.28-16.14-6.84c-4.1-4.56-6.15-10.55-6.15-17.96
				c0-7.19,2-13.29,6-18.29s8.87-7.51,14.62-7.51c5.2,0,9.5,2.46,12.88,7.39C756.9,279.99,758.98,286.81,759.76,295.52z
				 M748.23,287.39c0-7.19-2.25-10.78-6.75-10.78c-1.98,0-3.64,1.03-4.98,3.09c-1.34,2.06-2,4.62-2,7.7h13.73V287.39z"/>
		</g>
		<g class="st0">
			<path d="M703.69,351.37v48.93c-14.63-21.37-30.45-32.05-47.44-32.05c-7.6,0-13.52,3.61-17.76,10.83
				c-4.24,7.22-6.36,17.27-6.36,30.15c0,25.32,8.36,37.98,25.09,37.98c7.66,0,13.85-2.92,18.59-8.76v-6l-24.6-26.21h75.75l-22,26.21
				v35.38l-13.34-11.68c-12.48,7.74-25.41,11.6-38.78,11.6c-16.08,0-29.56-5.52-40.44-16.55c-10.88-11.04-16.32-24.72-16.32-41.06
				c0-17.04,5.94-31.7,17.82-43.98s26.07-18.42,42.56-18.42c14.1,0,26.19,4.87,36.26,14.61L703.69,351.37z"/>
			<path d="M807.75,433.33c4.12,1.03,6.18,5.19,6.18,12.5c0,13.36-6.15,20.04-18.46,20.04c-10.25,0-16.15-5.68-17.71-17.04
				c-3.18,6.44-6.69,10.89-10.53,13.35c-3.84,2.46-9.22,3.69-16.14,3.69c-14.99,0-22.48-6.54-22.48-19.64
				c0-13.79,6.92-22.5,20.76-26.13l5.39-1.38l21.24-5.44v-6.33c0-6.49-3.39-9.74-10.16-9.74c-8.33,0-12.5,3.52-12.5,10.55
				c0,1.68,0.47,3.52,1.41,5.52c-4.21,2.06-9.22,3.08-15.02,3.08c-6.42,0-9.63-3.57-9.63-10.71c0-7.3,3.52-13.25,10.56-17.85
				s16.15-6.9,27.34-6.9c11.81,0,20.28,2.08,25.42,6.25c5.14,4.17,7.71,11.04,7.71,20.61v30.1c0,7.79,1.15,11.69,3.44,11.69
				c2.41,0,3.62-3.19,3.62-9.58C808.19,438.63,808.04,436.41,807.75,433.33z M775.99,426.43l-10.47,2.76l-3.05,0.65
				c-5.68,1.35-8.52,5.03-8.52,11.04c0,5.79,2.55,8.68,7.64,8.68c4.12,0,7.55-1.6,10.29-4.79s4.11-7.17,4.11-11.93L775.99,426.43
				L775.99,426.43z"/>
			<path d="M852.53,345.85v96.08l17.09,20.29H810.3l17.09-20.29v-73.92l-17.09-20.29L852.53,345.85z"/>
			<path d="M904.96,345.85v96.08l17.09,20.29h-59.32l17.09-20.29v-73.92l-17.09-20.29L904.96,345.85z"/>
			<path d="M963.88,380.34c10.75,0,20.24,4.53,28.49,13.59c8.24,9.06,12.37,19.52,12.37,31.36c0,11.31-4.09,20.99-12.28,29.05
				s-18.04,12.09-29.55,12.09c-11.57,0-21.46-4.21-29.68-12.62s-12.32-18.57-12.32-30.47c0-11.85,4.2-21.98,12.61-30.39
				C941.92,384.55,952.04,380.34,963.88,380.34z M962.56,396.65c-9.54,0-14.31,9.14-14.31,27.43c0,17.36,4.89,26.05,14.66,26.05
				c9.48,0,14.22-8.65,14.22-25.97C977.13,405.82,972.27,396.65,962.56,396.65z"/>
			<path d="M1002.04,384.64l42.22-1.87v14.69c5.48-10.98,12.37-16.47,20.67-16.47c8.13,0,15.37,4.49,21.73,13.47
				s9.54,19.2,9.54,30.67c0,11.25-3.07,20.85-9.21,28.81c-6.14,7.95-13.55,11.93-22.24,11.93c-9.83,0-16.67-6.36-20.49-19.07v30.19
				l20.1,20.29h-62.32l17.09-20.29v-72.06L1002.04,384.64z M1058,398.44c-8.01,0-12.01,8.01-12.01,24.02
				c0,16.77,4.15,25.15,12.46,25.15c7.21,0,10.82-8.28,10.82-24.83C1069.26,406.55,1065.51,398.44,1058,398.44z"/>
			<path d="M1140.24,382.77v59.15l16.78,20.29h-59.01l17.09-20.29V405l-17.09-20.37L1140.24,382.77z M1126.94,346.34
				c3.47,0,6.56,1.6,9.25,4.79s4.04,6.84,4.04,10.95c0,4.06-1.35,7.68-4.04,10.87c-2.69,3.19-5.78,4.79-9.25,4.79
				s-6.55-1.58-9.23-4.75c-2.68-3.16-4.02-6.8-4.02-10.91c0-4.17,1.34-7.83,4.02-11C1120.39,347.92,1123.47,346.34,1126.94,346.34z"
				/>
			<path d="M1153.71,384.64l41.21-1.87v21.34c3.24-8.87,6.6-14.94,10.09-18.22c3.49-3.27,8.27-4.91,14.33-4.91
				c16.17,0,24.25,9.77,24.25,29.29v31.65l17.09,20.29h-52.78l10.6-16.63v-26.7c0-10.87-3.27-16.31-9.8-16.31
				c-3.8,0-6.88,2.16-9.23,6.49c-2.36,4.33-3.53,9.98-3.53,16.96v19.56l10.56,16.63h-52.78l17.09-20.29V405L1153.71,384.64z"/>
			<path d="M1322.83,391.38c-0.06-1.24-0.09-2.38-0.09-3.41c0-8.38,2.96-12.58,8.88-12.58c5.62,0,8.44,3.62,8.44,10.87
				c0,5.3-2.06,7.95-6.18,7.95h-0.84c0.09-1.41,0.13-2.57,0.13-3.49c0-3.95-0.87-5.92-2.61-5.92c-1.8,0-2.69,2.06-2.69,6.17
				c0,2.11,0.15,3.49,0.44,4.14l2.39,5.36c1.09,2.49,1.63,4.98,1.63,7.46c0,6.76-3.14,12.44-9.41,17.04s-13.99,6.9-23.14,6.9
				c-4.77,0-8.6-0.62-11.48-1.87l-5.03-2.19c-1.09-0.49-2.3-0.73-3.62-0.73c-4.74,0-7.11,2.41-7.11,7.22c0,3.25,1.53,4.87,4.59,4.87
				l6.58-0.33l12.9-0.73l15.28-0.81c8.77,0,15.74,2.84,20.89,8.52s7.73,13.39,7.73,23.13c0,20.12-13.06,30.19-39.18,30.19
				c-12.69,0-23.13-1.77-31.32-5.32s-12.28-8.05-12.28-13.51c0-6.06,4.12-10.96,12.37-14.69c-5.62-4.81-8.44-11.44-8.44-19.88
				c0-5.73,0.76-10.17,2.28-13.31s4.53-6.54,9.03-10.22c-5.36-4.06-8.04-8.95-8.04-14.69c0-6.76,3.36-12.58,10.07-17.45
				s14.75-7.3,24.12-7.3C1308.18,382.77,1316.08,385.64,1322.83,391.38z M1279.23,468.63c-2.18,2.49-3.27,4.92-3.27,7.3
				c0,6.44,7.92,9.66,23.76,9.66c17.23,0,25.84-2.87,25.84-8.6c0-5.41-4.15-8.11-12.46-8.11L1279.23,468.63z M1298.45,394.7
				c-6.24,0-9.36,4.19-9.36,12.58c0,8.44,3.08,12.66,9.23,12.66c6.24,0,9.36-4.22,9.36-12.66
				C1307.68,398.9,1304.6,394.7,1298.45,394.7z"/>
			<path d="M1478.12,351.37v48.93c-14.63-21.37-30.45-32.05-47.44-32.05c-7.6,0-13.52,3.61-17.75,10.83
				c-4.24,7.22-6.36,17.27-6.36,30.15c0,25.32,8.36,37.98,25.09,37.98c7.66,0,13.85-2.92,18.59-8.76v-6l-24.6-26.21h75.75l-22,26.21
				v35.38l-13.34-11.68c-12.49,7.74-25.41,11.6-38.78,11.6c-16.08,0-29.55-5.52-40.43-16.55c-10.88-11.04-16.32-24.72-16.32-41.06
				c0-17.04,5.94-31.7,17.82-43.98s26.07-18.42,42.55-18.42c14.1,0,26.19,4.87,36.26,14.61L1478.12,351.37z"/>
			<path d="M1545.12,380.34c10.75,0,20.24,4.53,28.49,13.59c8.24,9.06,12.37,19.52,12.37,31.36c0,11.31-4.09,20.99-12.28,29.05
				s-18.04,12.09-29.55,12.09c-11.57,0-21.46-4.21-29.68-12.62s-12.32-18.57-12.32-30.47c0-11.85,4.2-21.98,12.61-30.39
				C1523.16,384.55,1533.28,380.34,1545.12,380.34z M1543.79,396.65c-9.54,0-14.31,9.14-14.31,27.43c0,17.36,4.89,26.05,14.66,26.05
				c9.48,0,14.22-8.65,14.22-25.97C1558.37,405.82,1553.51,396.65,1543.79,396.65z"/>
			<path d="M1634.12,380.34c10.75,0,20.24,4.53,28.49,13.59c8.24,9.06,12.37,19.52,12.37,31.36c0,11.31-4.09,20.99-12.28,29.05
				s-18.04,12.09-29.55,12.09c-11.57,0-21.46-4.21-29.68-12.62s-12.32-18.57-12.32-30.47c0-11.85,4.2-21.98,12.61-30.39
				C1612.16,384.55,1622.28,380.34,1634.12,380.34z M1632.79,396.65c-9.54,0-14.31,9.14-14.31,27.43c0,17.36,4.89,26.05,14.66,26.05
				c9.48,0,14.22-8.65,14.22-25.97C1647.37,405.82,1642.51,396.65,1632.79,396.65z"/>
			<path d="M1749.22,382.77v29.54c-12.19-10.82-24.59-16.23-37.19-16.23c-7.92,0-11.88,1.84-11.88,5.52c0,2.98,1.63,4.46,4.9,4.46
				l12.54,0.89c11.22,0,20.21,2.88,26.96,8.64c6.76,5.76,10.14,13.43,10.14,23c0,18.18-8.98,27.26-26.94,27.26
				c-9.8,0-20.42-2.98-31.84-8.93l-12.19,9.33v-36.84c5.68,6.44,12.59,11.85,20.71,16.23c8.13,4.38,15.42,6.57,21.86,6.57l3.75,0.08
				l6.93-2.92c0.35-0.43,0.53-1,0.53-1.7c0-3.89-2.65-5.84-7.95-5.84c-31.77,0-47.66-10.79-47.66-32.38
				c0-19.1,9.53-28.64,28.58-28.64c9.01,0,17.78,2.73,26.32,8.2L1749.22,382.77z"/>
			<path d="M1835.34,427.65h-47.92c0,14.28,7.05,21.42,21.16,21.42c13.37,0,22.16-4.65,26.37-13.96c0.53,2.22,0.8,4.03,0.8,5.44
				c0,7.84-3.04,14.13-9.12,18.87c-6.08,4.73-14.14,7.1-24.18,7.1c-12.54,0-22.68-3.9-30.41-11.68
				c-7.73-7.79-11.59-18.01-11.59-30.67c0-12.28,3.77-22.69,11.31-31.24s16.72-12.82,27.56-12.82c9.81,0,17.89,4.21,24.27,12.62
				C1829.95,401.13,1833.87,412.77,1835.34,427.65z M1813.61,413.77c0-12.28-4.24-18.42-12.72-18.42c-3.74,0-6.87,1.76-9.38,5.27
				c-2.52,3.52-3.78,7.9-3.78,13.15L1813.61,413.77L1813.61,413.77z"/>
		</g>
	</g>
</g>
</svg>
