<?xml version="1.0" encoding="UTF-8"?><svg id="Layer_1" xmlns="http://www.w3.org/2000/svg" viewBox="0 0 1146 465.2"><defs><style>.cls-1{fill:#fff;stroke-width:0px;}</style></defs><path class="cls-1" d="m273.3,159.9c5.8-13.8,9.1-29,9.1-44.9C282.4,51.5,230.9,0,167.4,0S52.3,51.5,52.3,115.1s3.2,31.1,9.1,44.9C26,169.7,0,202.1,0,240.6s37.5,83.7,83.7,83.7,10-.5,14.8-1.3l-39.7-40.7c-3.5-3.6-3.5-9.4.2-12.9s9.4-3.5,12.9.2l46.2,47.3c17.3-7.8,31.5-21.4,40.1-38.2v-123c0-7.2,5.9-13.1,13.1-13.1s13.1,5.9,13.1,13.1v135.5c2.4,3.2,5,6.2,7.9,9l71.9-73.8c3.5-3.6,9.3-3.7,12.9-.2,3.6,3.5,3.7,9.3.2,12.9l-70.5,72.4c12.9,8.1,28.1,12.7,44.4,12.7,46.2,0,83.7-37.5,83.7-83.7s-26-70.9-61.4-80.7Z"/><path class="cls-1" d="m184.4,308.2v-17.1c-10.7-14-17-31.6-17-50.5,0,13.7-3.3,26.6-9.2,38v79.3l-40.1-41.1c-6.2,2.8-12.8,4.9-19.6,6.1l59.7,61.2v63.1c0,7.2,5.9,13.1,13.1,13.1s13.1-5.9,13.1-13.1v-112.8l22.3-22.9c-5.2-3.3-10.1-7.1-14.4-11.4l-7.9,8.1Z"/><path class="cls-1" d="m167.4,230.1c-.2,0-.4,0-.7,0,.4,3.4.7,6.9.7,10.5,0-3.5.2-7,.7-10.5-.2,0-.4,0-.7,0Z"/><path class="cls-1" d="m404.3,327.7V80.1h-88.2V29.7h236v50.4h-88v247.6h-59.8Z"/><path class="cls-1" d="m622.6,327.7h-57.1V111.8h52.9v30.7c9.1-14.4,17.2-23.9,24.3-28.7,7.2-4.7,15.4-7.1,24.8-7.1s25.5,3.6,37.3,10.8l-17.8,49.8c-9.4-6.2-18.3-9.4-26.7-9.4s-14.9,2.4-20.9,7.2c-6,4.8-10.3,13.5-13,26.2-2.6,12.6-4,35.8-4,69.6v66.8Z"/><path class="cls-1" d="m854.4,259.2l56.6,9.6c-7.6,21.7-19.4,37.8-35.4,48.3-16,10.5-35.5,15.8-58.4,15.8s-56.4-8.8-73.7-26.3c-20.5-20.4-30.7-48.9-30.7-85.5s10.3-65,30.9-86.8c17.5-18.3,40-27.5,67.7-27.5s54.9,9.4,72.4,28.1c20.1,21.4,30.2,53.1,30.2,94.9l-.2,6.5h-142.6c.3,17.1,5,30.4,14,39.8,9,9.4,19.9,14.1,32.6,14.1,18.3,0,30.6-10.3,36.7-30.9Zm3-57.9c-.5-16.9-4.9-29.6-13.1-38.1-8.2-8.5-18-12.8-29.4-12.8s-22.2,4.4-30.4,13.3c-8.4,9-12.5,21.5-12.4,37.6h85.3Z"/><path class="cls-1" d="m1085.2,259.2l56.6,9.6c-7.6,21.7-19.4,37.8-35.4,48.3-16,10.5-35.5,15.8-58.4,15.8s-56.4-8.8-73.7-26.3c-20.5-20.4-30.7-48.9-30.7-85.5s10.3-65,30.9-86.8c17.5-18.3,40-27.5,67.7-27.5s54.9,9.4,72.4,28.1c20.1,21.4,30.2,53.1,30.2,94.9l-.2,6.5h-142.6c.3,17.1,5,30.4,14,39.8,9,9.4,19.9,14.1,32.6,14.1,18.3,0,30.6-10.3,36.7-30.9Zm3-57.9c-.5-16.9-4.9-29.6-13.1-38.1-8.2-8.5-18-12.8-29.4-12.8s-22.2,4.4-30.4,13.3c-8.4,9-12.5,21.5-12.4,37.6h85.3Z"/><path class="cls-1" d="m390.8,435.9v-99.7h28.9c10.8,0,17.8.5,21.1,1.4,5.3,1.5,9.6,4.8,13.1,9.9,3.4,5,5.1,11.5,5.1,19.4s-1.5,13.2-4.4,18.1c-3,4.9-6.7,8.3-11.1,10.3-4.4,2-12.1,3-22.9,3h-11.8v37.6h-17.9Zm17.9-82.8v28.3h9.9c6.7,0,11.2-.4,13.6-1.3,2.4-.9,4.4-2.4,5.9-4.7s2.3-5,2.3-8.3-.8-6.1-2.4-8.4c-1.6-2.3-3.5-3.8-5.9-4.6-2.3-.8-7.2-1.2-14.8-1.2h-8.8Z"/><path class="cls-1" d="m490.6,336.2v36.6c2.7-3.6,5.7-6.3,9-8.1,3.3-1.8,6.8-2.7,10.7-2.7s9.4,1.2,12.9,3.7c3.5,2.5,5.9,6,7.4,10.6,1.1,3.4,1.6,9.1,1.6,17.1v42.4h-17.1v-38.2c0-8.8-.6-14.4-1.8-16.6-1.7-3-4.6-4.5-8.8-4.5s-7.8,1.6-10.2,4.9c-2.4,3.2-3.7,9.3-3.7,18.2v36.2h-17.1v-99.7h17.1Z"/><path class="cls-1" d="m545.5,398.7c0-7.1,1.5-13.5,4.6-19.3,3.1-5.8,7.1-10.2,12-13.1,4.9-2.9,10.5-4.4,16.6-4.4,10.4,0,18.5,3.7,24.4,11.2,5.9,7.5,8.9,16.2,8.9,26.2s-1.5,14.2-4.6,20.2c-3.1,6-7.1,10.5-12.1,13.5-5,3-10.5,4.5-16.5,4.5-9.6,0-17.5-3.4-23.8-10.1-6.3-6.7-9.5-16.3-9.5-28.7Zm17.5,1c0,7.3,1.6,12.9,4.7,16.6s6.9,5.6,11.3,5.6,8-1.9,11-5.7c3.1-3.8,4.6-9.3,4.6-16.7s-1.6-12.7-4.7-16.4c-3.1-3.8-6.8-5.7-11.2-5.7s-8,1.9-11.1,5.7-4.6,9.3-4.6,16.6Z"/><path class="cls-1" d="m654.9,363.7v15.2h-11.6v29.1c0,6.3.2,10,.5,11,.7,1.8,2.1,2.7,4.2,2.7s3.8-.6,6.8-1.8l1.5,14.8c-3.9,1.9-8.4,2.9-13.4,2.9s-7.8-1-10.4-2.9c-2.6-1.9-4.4-4.6-5.3-8.2-.7-2.6-1-8-1-16.1v-31.5h-7.8v-15.2h7.8v-14.3l17.1-11.1v25.5h11.6Z"/><path class="cls-1" d="m662.8,398.7c0-7.1,1.5-13.5,4.6-19.3,3.1-5.8,7.1-10.2,12-13.1,4.9-2.9,10.5-4.4,16.6-4.4,10.4,0,18.5,3.7,24.4,11.2,5.9,7.5,8.9,16.2,8.9,26.2s-1.5,14.2-4.6,20.2c-3.1,6-7.1,10.5-12.1,13.5-5,3-10.5,4.5-16.5,4.5-9.6,0-17.5-3.4-23.8-10.1-6.3-6.7-9.5-16.3-9.5-28.7Zm17.5,1c0,7.3,1.6,12.9,4.7,16.6,3.1,3.8,6.9,5.6,11.3,5.6s8-1.9,11-5.7,4.6-9.3,4.6-16.7-1.6-12.7-4.7-16.4c-3.1-3.8-6.8-5.7-11.2-5.7s-8,1.9-11.1,5.7c-3.1,3.8-4.6,9.3-4.6,16.6Z"/><path class="cls-1" d="m741.1,440.6l19.5,2.7c.3,2.6,1.2,4.5,2.7,5.6,1.5,1.1,3.9,1.7,7.1,1.7s6.8-.6,9.1-1.7c1.6-.8,2.9-2.2,3.8-4.1.9-1.9,1.3-5.3,1.3-10.1v-10.5c-2.6,3.9-5.5,6.8-8.7,8.8-3.2,1.9-6.8,2.9-10.7,2.9-7.2,0-13.2-3-18.1-8.9-5.6-6.8-8.4-16-8.4-27.6s2.7-21.6,8-27.9c5.3-6.3,11.7-9.4,19.3-9.4s7.6,1,10.9,3c3.3,2,6.2,4.9,8.8,8.9v-10.1h16v64.8c0,10.4-1,17.9-3.1,22.6-2.1,4.7-5.3,8.2-9.6,10.6-4.3,2.4-10.3,3.6-17.9,3.6s-12.7-.9-16.9-2.6c-4.2-1.7-7.5-4.3-9.7-7.7-2.2-3.4-3.4-7.4-3.4-11.9v-2.4Zm15.2-42.4c0,7.7,1.3,13.3,4,16.9,2.7,3.5,5.9,5.3,9.7,5.3s7.6-1.8,10.5-5.4,4.4-9,4.4-16.3-1.4-13.1-4.2-16.7c-2.8-3.6-6.2-5.4-10.3-5.4s-7.4,1.8-10.1,5.3c-2.7,3.5-4,9-4,16.3Z"/><path class="cls-1" d="m835,435.9h-17.1v-72.2h15.8v10.3c2.7-4.8,5.1-8,7.3-9.6s4.6-2.4,7.4-2.4,7.6,1.2,11.2,3.6l-5.3,16.7c-2.8-2.1-5.5-3.1-8-3.1s-4.5.8-6.3,2.4c-1.8,1.6-3.1,4.5-3.9,8.7-.8,4.2-1.2,12-1.2,23.3v22.3Z"/><path class="cls-1" d="m879.6,385.6l-15.5-3.1c1.9-7.3,5-12.5,9.3-15.7,4.3-3.2,10.5-4.8,18.6-4.8s12.7.9,16.5,2.8c3.8,1.9,6.5,4.4,8.1,7.6,1.6,3.2,2.4,9,2.4,17.5v22.3c-.1,6.3.1,10.9.7,14,.5,3.1,1.6,6.3,3,9.8h-16.9l-2.2-7.9c-2.9,3.2-6,5.6-9.4,7.2-3.3,1.6-6.9,2.4-10.6,2.4-6.3,0-11.4-1.9-15.4-5.8-4-3.9-6-9-6-15.5s.8-7.6,2.4-10.7,3.9-5.5,6.9-7.3c3-1.8,7.7-3.4,14.2-4.8,7.9-1.7,13.4-3.2,16.5-4.7,0-4-.3-6.6-.9-7.9-.6-1.3-1.8-2.3-3.4-3.1-1.7-.8-4-1.2-7-1.2s-5.5.6-7.2,1.9-3.2,3.6-4.3,7.1Zm22.8,15.6c-2.2.8-5.5,1.8-10.1,2.9-5.3,1.3-8.7,2.7-10.4,4.2-1.6,1.5-2.4,3.5-2.4,6s.9,5.1,2.7,7c1.8,1.9,4.1,2.8,6.8,2.8s4.8-.8,7.2-2.3,4-3.3,4.9-5.4c.9-2.1,1.4-5.9,1.4-11.4v-3.8Z"/><path class="cls-1" d="m935.5,363.7h15.8v10.6c2.2-3.8,5-6.8,8.6-9,3.6-2.2,7.4-3.3,11.5-3.3,7.4,0,13.7,3.2,19,9.7,5.3,6.4,8,15.6,8,27.4s-2.7,22-8,28.6c-5.3,6.6-11.7,9.9-19,9.9s-6.6-.8-9.5-2.3c-2.9-1.5-6-4.3-9.3-8.3v36.3h-17.1v-99.7Zm16.9,34.9c0,8.2,1.4,14.2,4.3,18.1s6.4,5.8,10.4,5.8,7.2-1.8,9.8-5.4c2.7-3.6,4-9.4,4-17.5s-1.4-13.4-4.1-17c-2.7-3.7-6.1-5.5-10-5.5s-7.6,1.8-10.3,5.4c-2.8,3.6-4.1,8.9-4.1,16.1Z"/><path class="cls-1" d="m1029,336.2v36.6c2.7-3.6,5.7-6.3,9-8.1,3.3-1.8,6.8-2.7,10.7-2.7s9.4,1.2,12.9,3.7c3.5,2.5,5.9,6,7.4,10.6,1.1,3.4,1.6,9.1,1.6,17.1v42.4h-17.1v-38.2c0-8.8-.6-14.4-1.8-16.6-1.7-3-4.6-4.5-8.8-4.5s-7.8,1.6-10.2,4.9c-2.4,3.2-3.7,9.3-3.7,18.2v36.2h-17.1v-99.7h17.1Z"/><path class="cls-1" d="m1079.7,363.7h18.2l15.3,51.3,15.1-51.3h17.7l-22.7,69.5-4.4,13.5c-1.9,5.1-3.8,8.8-5.7,11.1-1.9,2.4-4.3,4.2-7.3,5.4-2.9,1.3-6.6,1.9-10.9,1.9s-6.5-.4-9.7-1.2l-1.5-15c2.7.6,5.1.9,7.2.9,3.3,0,5.9-1,8-3s3.8-5.6,5.2-10.9l-24.5-72.4Z"/></svg>